<svg xmlns="http://www.w3.org/2000/svg" xmlns:xlink="http://www.w3.org/1999/xlink" id="Layer_1" data-name="Layer 1" viewBox="0 0 708.66 269.29" width="708.66"  height="269.29" ><defs><linearGradient id="linear-gradient" x1="14.15" y1="131.76" x2="691.53" y2="131.76" gradientUnits="userSpaceOnUse"><stop offset="0.03" stop-color="#5cb95c"/><stop offset="0.31" stop-color="#54b859"/><stop offset="0.74" stop-color="#3eb451"/><stop offset="1" stop-color="#2eb24b"/></linearGradient><linearGradient id="linear-gradient-2" x1="657.76" y1="213.6" x2="569.61" y2="137.41" gradientUnits="userSpaceOnUse"><stop offset="0.03" stop-color="#5cb95c"/><stop offset="0.18" stop-color="#40b457"/><stop offset="0.36" stop-color="#28b053"/><stop offset="0.55" stop-color="#17ac50"/><stop offset="0.75" stop-color="#0dab4f"/><stop offset="1" stop-color="#0aaa4e"/></linearGradient></defs><path d="M448.76,113.64h7v9.07h-7Z" style="fill:#231f20"/><path d="M487.66,124a26,26,0,0,1-10.92-2.3,28,28,0,0,1-14.6-15.06,28.74,28.74,0,0,1-2.08-10.88v-.22a28.72,28.72,0,0,1,2.08-10.86A29.19,29.19,0,0,1,468,75.63a27.52,27.52,0,0,1,8.78-6.25,26.28,26.28,0,0,1,10.92-2.28,29.09,29.09,0,0,1,7,.8,26.09,26.09,0,0,1,5.8,2.26,28.17,28.17,0,0,1,4.85,3.22,49.64,49.64,0,0,1,4.1,3.83l-3.73,3.84a42.06,42.06,0,0,0-7.78-6.28,19.1,19.1,0,0,0-10.34-2.67,21.26,21.26,0,0,0-15.6,6.74,23.71,23.71,0,0,0-4.64,7.38,24.27,24.27,0,0,0-1.72,9.13v.19a24,24,0,0,0,1.75,9.19,24.42,24.42,0,0,0,4.82,7.47,21.78,21.78,0,0,0,7.08,5A21.45,21.45,0,0,0,488,119a20.38,20.38,0,0,0,10.28-2.58,32.1,32.1,0,0,0,7.94-6.43l3.63,3.2a39.1,39.1,0,0,1-9.44,7.76A24.86,24.86,0,0,1,487.66,124Z" style="fill:#231f20"/><path d="M538.06,124a26.55,26.55,0,0,1-11.15-2.3,28,28,0,0,1-8.78-6.13,27.68,27.68,0,0,1-5.81-8.93,28.55,28.55,0,0,1-2.07-10.88v-.22a28.49,28.49,0,0,1,7.92-19.91,28,28,0,0,1,8.93-6.25,28.43,28.43,0,0,1,22.31,0,28.9,28.9,0,0,1,8.78,6.15A27.2,27.2,0,0,1,564,84.46a28.23,28.23,0,0,1,2.09,10.89v.19A28.33,28.33,0,0,1,564,106.42a28.85,28.85,0,0,1-5.83,9.06,27.79,27.79,0,0,1-8.91,6.22A26.88,26.88,0,0,1,538.06,124Zm.2-5a21,21,0,0,0,8.93-1.85,21.3,21.3,0,0,0,7.08-5,22.73,22.73,0,0,0,4.61-7.37,24.43,24.43,0,0,0,1.65-9v-.22a24,24,0,0,0-1.71-9.17,22.72,22.72,0,0,0-4.76-7.47,22.3,22.3,0,0,0-25-4.93,22.1,22.1,0,0,0-7,5,22.68,22.68,0,0,0-4.59,7.42,24,24,0,0,0-1.67,9v.19a24.38,24.38,0,0,0,1.71,9.19,23.37,23.37,0,0,0,4.76,7.47,21.88,21.88,0,0,0,16,6.77Z" style="fill:#231f20"/><path d="M570.32,113.64h7.07v9.07h-7.07Z" style="fill:#231f20"/><path d="M585.46,47.09H592v7.1h-6.52Zm.65,21.28h5.2v54.34h-5.2Z" style="fill:#231f20"/><path d="M624.14,124a25.91,25.91,0,0,1-9.62-1.89,27.13,27.13,0,0,1-8.5-5.56,27.76,27.76,0,0,1-6-8.89,29.85,29.85,0,0,1-2.3-11.9v-.22A29.59,29.59,0,0,1,600,83.68a28.25,28.25,0,0,1,6-9,27.37,27.37,0,0,1,8.5-5.64,25.39,25.39,0,0,1,17.07-.91A23.43,23.43,0,0,1,637.7,71a28.35,28.35,0,0,1,4.93,4.16,38.26,38.26,0,0,1,3.89,4.87V44.94h5.22v77.77h-5.22V110.56a45.88,45.88,0,0,1-4,5.13,27.55,27.55,0,0,1-4.9,4.25,23.75,23.75,0,0,1-6.06,2.91A22.56,22.56,0,0,1,624.14,124Zm.47-5a20.66,20.66,0,0,0,8.29-1.68,22.5,22.5,0,0,0,7.1-4.8,23.47,23.47,0,0,0,6.83-16.81v-.24A23.46,23.46,0,0,0,645,85.91a22.69,22.69,0,0,0-12.06-12.1,20.69,20.69,0,0,0-8.29-1.71,21.6,21.6,0,0,0-8.37,1.62,19.63,19.63,0,0,0-6.79,4.56,22,22,0,0,0-4.54,7.29,27.19,27.19,0,0,0-1.66,9.78v.19a26.32,26.32,0,0,0,1.72,9.72,23,23,0,0,0,4.64,7.41,20.65,20.65,0,0,0,15,6.3Z" style="fill:#231f20"/><path d="M58.87,208.52V55H96.59V208.52Z" style="fill:#231f20"/><path d="M118.58,208.52V179.18L177.49,88.6H121.17V55H222.76V84.29l-59.09,90.6h59.09v33.63Z" style="fill:#231f20"/><path d="M244.75,208.52V55h37.74V208.52Z" style="fill:#231f20"/><path d="M400.47,208.52l-49.19-77.19v77.19H313.52V55h33l49.18,77.2V55h37.72V208.52Z" style="fill:#231f20"/><path d="M674.53,30.47V135.9L577.39,233H31.15V30.47H674.53m17-17H14.15V250.07h570.3L691.53,143V13.46Z" style="fill:url(#linear-gradient)"/><polygon points="584.45 142.96 584.45 250.07 691.53 142.96 584.45 142.96" style="fill:url(#linear-gradient-2)"/></svg>